<svg width="44" height="44" viewBox="0 0 44 44" fill="none" xmlns="http://www.w3.org/2000/svg">
<path d="M14.1763 28.4456H14.1783C14.18 28.4456 14.1817 28.4453 14.1834 28.4453H37.5547C38.1301 28.4453 38.636 28.0636 38.7941 27.5104L43.9503 9.46353C44.0614 9.07446 43.9836 8.65619 43.7402 8.33325C43.4965 8.01031 43.1154 7.82031 42.7109 7.82031H11.2034L10.282 3.67349C10.1507 3.08368 9.62769 2.66406 9.02344 2.66406H1.28906C0.577057 2.66406 0 3.24112 0 3.95312C0 4.66513 0.577057 5.24219 1.28906 5.24219H7.9895C8.15265 5.97702 12.3992 25.0867 12.6436 26.1861C11.2736 26.7816 10.3125 28.1476 10.3125 29.7344C10.3125 31.8667 12.0474 33.6016 14.1797 33.6016H37.5547C38.2667 33.6016 38.8438 33.0245 38.8438 32.3125C38.8438 31.6005 38.2667 31.0234 37.5547 31.0234H14.1797C13.469 31.0234 12.8906 30.445 12.8906 29.7344C12.8906 29.0247 13.467 28.4473 14.1763 28.4456ZM41.0019 10.3984L36.5822 25.8672H15.2136L11.7761 10.3984H41.0019Z" fill="#36723E"/>
<path d="M12.8906 37.4688C12.8906 39.6011 14.6255 41.3359 16.7578 41.3359C18.8901 41.3359 20.625 39.6011 20.625 37.4688C20.625 35.3364 18.8901 33.6016 16.7578 33.6016C14.6255 33.6016 12.8906 35.3364 12.8906 37.4688ZM16.7578 36.1797C17.4685 36.1797 18.0469 36.7581 18.0469 37.4688C18.0469 38.1794 17.4685 38.7578 16.7578 38.7578C16.0471 38.7578 15.4688 38.1794 15.4688 37.4688C15.4688 36.7581 16.0471 36.1797 16.7578 36.1797Z" fill="#36723E"/>
<path d="M31.1094 37.4688C31.1094 39.6011 32.8442 41.3359 34.9766 41.3359C37.1089 41.3359 38.8438 39.6011 38.8438 37.4688C38.8438 35.3364 37.1089 33.6016 34.9766 33.6016C32.8442 33.6016 31.1094 35.3364 31.1094 37.4688ZM34.9766 36.1797C35.6872 36.1797 36.2656 36.7581 36.2656 37.4688C36.2656 38.1794 35.6872 38.7578 34.9766 38.7578C34.2659 38.7578 33.6875 38.1794 33.6875 37.4688C33.6875 36.7581 34.2659 36.1797 34.9766 36.1797Z" fill="#36723E"/>
</svg>
