<svg width="481" height="481" viewBox="0 0 481 481" fill="none" xmlns="http://www.w3.org/2000/svg">
<circle cx="240.5" cy="240.5" r="240.5" fill="#FFE8E8"/>
<g clip-path="url(#clip0)">
<path d="M277.518 203.546C274 203.546 271.148 206.397 271.148 209.916V330.309C271.148 333.825 274 336.679 277.518 336.679C281.037 336.679 283.888 333.825 283.888 330.309V209.916C283.888 206.397 281.037 203.546 277.518 203.546Z" fill="#D82525"/>
<path d="M202.352 203.546C198.834 203.546 195.982 206.397 195.982 209.916V330.309C195.982 333.825 198.834 336.679 202.352 336.679C205.871 336.679 208.722 333.825 208.722 330.309V209.916C208.722 206.397 205.871 203.546 202.352 203.546Z" fill="#D82525"/>
<path d="M147.57 185.976V342.92C147.57 352.196 150.972 360.907 156.914 367.158C162.828 373.426 171.06 376.984 179.674 376.999H300.197C308.813 376.984 317.045 373.426 322.957 367.158C328.899 360.907 332.3 352.196 332.3 342.92V185.976C344.112 182.841 351.766 171.43 350.186 159.309C348.604 147.191 338.28 138.126 326.057 138.124H293.443V130.161C293.481 123.465 290.833 117.036 286.093 112.305C281.353 107.578 274.913 104.945 268.217 105H211.653C204.957 104.945 198.518 107.578 193.778 112.305C189.037 117.036 186.39 123.465 186.427 130.161V138.124H153.813C141.591 138.126 131.267 147.191 129.684 159.309C128.104 171.43 135.758 182.841 147.57 185.976V185.976ZM300.197 364.259H179.674C168.783 364.259 160.31 354.903 160.31 342.92V186.536H319.56V342.92C319.56 354.903 311.088 364.259 300.197 364.259ZM199.167 130.161C199.125 126.844 200.429 123.652 202.783 121.311C205.134 118.969 208.334 117.683 211.653 117.74H268.217C271.536 117.683 274.736 118.969 277.088 121.311C279.442 123.65 280.746 126.844 280.703 130.161V138.124H199.167V130.161ZM153.813 150.864H326.057C332.39 150.864 337.523 155.997 337.523 162.33C337.523 168.663 332.39 173.796 326.057 173.796H153.813C147.481 173.796 142.347 168.663 142.347 162.33C142.347 155.997 147.481 150.864 153.813 150.864V150.864Z" fill="#D82525"/>
<path d="M239.935 203.546C236.417 203.546 233.565 206.397 233.565 209.916V330.309C233.565 333.825 236.417 336.679 239.935 336.679C243.454 336.679 246.305 333.825 246.305 330.309V209.916C246.305 206.397 243.454 203.546 239.935 203.546Z" fill="#D82525"/>
</g>
<defs>
<clipPath id="clip0">
<rect width="272" height="272" fill="white" transform="translate(104 105)"/>
</clipPath>
</defs>
</svg>
