<svg width="481" height="481" viewBox="0 0 481 481" fill="none" xmlns="http://www.w3.org/2000/svg">
<circle cx="240.5" cy="240.5" r="240.5" fill="#8FB794" fill-opacity="0.29"/>
<g clip-path="url(#clip0)">
<path d="M349.278 273.818C345.756 273.818 342.902 276.672 342.902 280.193V336.803C342.89 347.363 334.335 355.92 323.775 355.93H144.879C134.319 355.92 125.764 347.363 125.751 336.803V170.658C125.764 160.101 134.319 151.543 144.879 151.531H201.488C205.01 151.531 207.864 148.677 207.864 145.155C207.864 141.636 205.01 138.779 201.488 138.779H144.879C127.281 138.799 113.02 153.06 113 170.658V336.805C113.02 354.403 127.281 368.664 144.879 368.684H323.775C341.373 368.664 355.634 354.403 355.654 336.805V280.193C355.654 276.672 352.8 273.818 349.278 273.818V273.818Z" fill="#36723E"/>
<path d="M353.128 122.374C341.923 111.169 323.758 111.169 312.553 122.374L198.806 236.121C198.026 236.901 197.463 237.867 197.17 238.928L182.211 292.93C181.596 295.144 182.221 297.515 183.845 299.141C185.472 300.765 187.843 301.39 190.057 300.777L244.059 285.817C245.119 285.523 246.086 284.96 246.865 284.181L360.61 170.431C371.797 159.219 371.797 141.068 360.61 129.856L353.128 122.374ZM212.698 240.265L305.791 147.17L335.814 177.193L242.719 270.288L212.698 240.265ZM206.701 252.299L230.687 276.288L197.508 285.481L206.701 252.299ZM351.594 161.415L344.832 168.177L314.807 138.152L321.571 131.39C327.795 125.166 337.886 125.166 344.11 131.39L351.594 138.871C357.808 145.103 357.808 155.187 351.594 161.415V161.415Z" fill="#36723E"/>
</g>
<defs>
<clipPath id="clip0">
<rect width="256" height="256" fill="white" transform="translate(113 113)"/>
</clipPath>
</defs>
</svg>
