<svg xmlns="http://www.w3.org/2000/svg" width="235.691" height="237" viewBox="0 0 235.691 237">
  <g id="Group_57" data-name="Group 57" transform="translate(-490.043 -184.714)">
    <g id="Group_7" data-name="Group 7" transform="translate(490.043 184.714)">
      <g id="Group_5" data-name="Group 5" transform="translate(0 0)">
        <path id="Path_21" data-name="Path 21" d="M153.381,317.387c65.179,0,108.361-14.034,101.8,2.918-19.794,35.046-58.806,57.026-101.8,57.6-20.8,0-47.656-7.385-69.706-23.466-19.868-14.571-31.008-34.769-31.008-34.769S129.721,317.387,153.381,317.387Z" transform="translate(-35.911 -142.213)" fill="#7fa25b"/>
        <path id="Path_20" data-name="Path 20" d="M116.984,0c33.986,0,64.351,13.72,86.076,37.259,4.939,5.352,9.8,10.565,13.877,17.06a131.066,131.066,0,0,1,12.849,28.3,114.877,114.877,0,0,1,5.418,35.691,140.255,140.255,0,0,1-5.087,33.631,123.255,123.255,0,0,1-11.5,25.945H16.2A111.133,111.133,0,0,1,4.792,151.814,135.638,135.638,0,0,1-.486,117.066C.182,53.475,52.393,0,116.984,0Z" transform="translate(0.486 0)" fill="#458055"/>
      </g>
    </g>
    <path id="Path_27" data-name="Path 27" d="M159.579,1004.241c2.613-.116,17.043-24.877,20-32.627,3.454-9.061,5.76-15.224,5.875-21.888.064-3.691-1.1-8.42-2-11.882a157.806,157.806,0,0,1-3.877-19.328c-.969-8.564,0-30.077,0-30.077l9.617,3.615s-1.884,25.464,0,31.56,3.563,14.853,6.115,14.23c1.531-.939,5.824-6.92,8.01-14.23s5.066-23.874,5.066-23.874l7.314,3.9s-7.123,29.218-12.381,41.724c-2.161,5.662-8.677,16.04-12.664,27.784s-17.8,34.434-17.761,37.612c.332.565,1.615,3.373,6.684,1.292,7.777-3.192,20.124-15.261,23.741-18.456,6.372-5.628,11.481-7.8,17.445-20.448a191.936,191.936,0,0,0,9.228-23.425s9.174-24,10.153-23.735,5.313,6.745,5.313,6.745S229.829,968.867,236,963.775c3.149-2.6,18.979-17.049,18.979-17.049s8.6,2.858,4.029,7.972c-7.491,8.379-23.492,17.683-26.927,23.189-2.865,4.593-21.917,24.891-31.549,32.874s-23.077,14.822-27.642,18.34c-6.381,5.49-4.024,29.672-4.024,29.672v43.515s.353,14.754,1.085,18.7-10.375.89-10.375.89-21.583.027-23.656,0c0,.013,1.586-3.411,1.305-19.585-1-18.238-.1-22.772,0-37.58.02-3.121-.49-19.708-1.305-24.7-.233-1.426-18.484-10.912-18.484-10.912s-12.935-7.676-18.47-11.58c-5.612-3.106-31.784-23.725-32.075-23.923-13.407-7.737-14.308-8.045-20.8-12.2-12.825-8.2-10.1-5.7-10.1-5.7l3.925-11.924s19.884,17.489,24.253,15.5C65.916,978.48,47.136,942.581,49,941.84c4.543-1.811,7.165-9.1,7.165-9.1s13.318,40.413,23.409,53.418c16.124,20.777,58.877,37.867,58.877,37.867s1.676-12.348-2.525-18.551a273.725,273.725,0,0,0-19.892-26.194c-3.485-4.1-7.626-11.067-12.48-15.5-13.024-14.438-25.034-53.566-23.98-54.452.57-.478,8.413-5.682,8.413-5.682s10.3,38.679,23.976,53.315c15.55,16.615,29.849,42.7,34.2,39.368s-7.713-60.247-7.713-60.247-6.521-5.086-12.573-16.092-11.634-27.932-11.634-27.932l7.669-3.615s6.216,26.227,12.382,31.547c2.468,2.13,4.608,6.252,7.424,6,2.136-6.227,5.72-39.976,5.72-39.976s6.686-.03,6.91,0c1.384.179-5.907,48.462-5.907,48.462s3.038,25.124,5.907,41.222C156.438,989.167,156.967,1004.357,159.579,1004.241Z" transform="translate(456.419 -701.287)" fill="#fff"/>
  </g>
</svg>
