<svg xmlns="http://www.w3.org/2000/svg" width="237.772" height="239.02" viewBox="0 0 237.772 239.02">
  <g id="Group_15" data-name="Group 15" transform="translate(-82.054 -47)">
    <g id="Group_7" data-name="Group 7" transform="translate(82 47)">
      <g id="Group_5" data-name="Group 5" transform="translate(0.054 0.301)">
        <path id="Path_21" data-name="Path 21" d="M154.271,317.435c65.754,0,109.318-14.158,102.7,2.944-19.969,35.355-59.326,57.529-102.7,58.106-20.985,0-48.077-7.45-70.322-23.673-20.043-14.7-31.282-35.076-31.282-35.076S130.4,317.435,154.271,317.435Z" transform="translate(-35.763 -140.714)" fill="#7fa25b"/>
        <path id="Path_20" data-name="Path 20" d="M118.022,0c34.286,0,64.92,13.841,86.836,37.588,4.983,5.4,9.886,10.658,14,17.21A132.224,132.224,0,0,1,231.82,83.35a115.891,115.891,0,0,1,5.466,36.007,141.493,141.493,0,0,1-5.132,33.928,124.343,124.343,0,0,1-11.6,26.174H16.348a112.114,112.114,0,0,1-11.51-26.3A136.836,136.836,0,0,1-.486,118.1C.188,53.947,52.86,0,118.022,0Z" transform="translate(0.486 0)" fill="#458055"/>
      </g>
    </g>
    <g id="Group_9" data-name="Group 9" transform="translate(82 47)">
      <path id="Path_1" data-name="Path 1" d="M215.023,1053.717c2.326-7.342,6.387-14.958,12.179-25.391,1.494-2.692.482-19.153,2.742-23.246.993-1.8,5.168,8.957,6.641,6.218,10.415-19.363,17.282-27.647,20.1-35.034,5.241-13.753,8.975-14.834,6.669-23.7,0-.01-5.061-22.685-4.562-27.634.588-5.829,1.586-16.833,1.586-16.833l5.508,1.54a79.743,79.743,0,0,0-1.394,13.919c.232,6.167-.43,8.374,1.366,14.185s3.384,9.5,5.815,8.9c1.458-.9,4.054-6.122,6.136-13.089s4.509-17.5,4.509-17.5l6.129,3.169s-5.629,18.208-10.638,30.129c-2.059,5.4-4.822,11.919-11.952,25.121-9.178,16.994-14.591,36.723-12.5,41.385,3.656,8.151,22.511-5.384,26.868-7.555,1.82-.906,7.948-8.962,10.271-20.949,1.253-6.47,5.487-21.647,6.9-25.887,3.835-11.52,5.455-32.206,6.388-31.956s6.783,5.25,7.733,6.57c-.44.861-10.09,30.239-4.206,25.385s16.032-12.916,16.032-12.916l4.636,5.7s-13.022,5.344-20.668,17.606-13.2,29.533-9.915,31.442,20.486.854,26.93-11.415,8.92-29.287,8.92-29.287l4.03,7.245s-1.671,8.221-3.227,15.626a54.523,54.523,0,0,1-4.88,13.211s8.77,1.208,11.611,2.015,6.674,1.853,7.482,2.6a66.9,66.9,0,0,1,.908,8c-3.755-.814-12.619-4.142-16.077-4.386a22.589,22.589,0,0,0-10.126,1.389c-2.471.8-32.651,9.924-34.664,10.142-1.49.162-21.319,12.356-31.617,20.294s-10.2,29.088-10.2,29.088l2.88,38.007,4,35.818c-2.158-.054-11.374,1.557-20.023,1.569a117.53,117.53,0,0,1-18.31-1.569s1.578-16.93,1.31-32.347c-.954-17.384-.094-21.706,0-35.82C216.382,1065.8,213.551,1058.365,215.023,1053.717Z" transform="translate(-111.887 -904.2)" fill="#fff"/>
      <path id="Path_2" data-name="Path 2" d="M212.123,1081.331c2.68,13.129,13.155-54.956,13.155-54.956s1.234-16.265-2.575-31.57-6.164-31.922-6.164-31.922.984-5.992,2.893-12.906a129.678,129.678,0,0,0,2.359-13c4.078-16.717,9.871-17.822,9.7-19.275-1.3-.229-4.892-.494-6.218-.563-4,3.115-5.7,9.263-8.739,16.8s-1.936,14.616-4.092,16.038-8.751-1.414-15.088-8.478-10.989-18.855-10.989-18.855l-8.194,2.785s6.629,12.17,14.5,21.188,13.965,12.681,15.692,16.267,2.384,17.919,5.151,29.865.613,18.882,0,18.024c0,0-19.77-14.637-28.863-24.384-5.526-5.923-11.7-16.355-14.517-21.234-7.186-12.446-8.672-31.508-8.672-31.508l-5.554,3.514A79.545,79.545,0,0,0,159.3,961.9c3.932,12.018,13.119,24.489,13.119,24.489s12.17,12.116,22.177,21.5,9.494,7.831,13.768,18.489c1.259,3.139,0,18.859,0,18.859s-15.031-.582-21.994-5.655c-13.442-9.793-27.668-19.02-32.9-25.449s-10.575-13.308-10.575-13.308-4.879-5.254-8.083-15.813-4.642-24.793-4.642-24.793l-6.036,7.822s2.448,11.4,3.74,18.35,7.539,17.634,6.937,18.769-8.709-3.438-14.864-6.083-9.758-4.5-9.758-4.5-2.12,4.61-1.938,5.5,5.709,3.106,12.29,5.08,22.353,11.686,22.353,11.686a214.866,214.866,0,0,0,22.527,19.826c13.046,9.93,29.174,23.365,29.174,23.365S209.443,1068.2,212.123,1081.331Z" transform="translate(-102.446 -917.139)" fill="#fff"/>
    </g>
  </g>
</svg>
